REM DIRINDEX 1\4,1\2\5,1\2\6,1\3\7,1\3\8
REM DIRNAME cjc124,folder01,folder02,folder03,folder04,folder05,folder06,folder07
TITLE ""
FILE "063_Day32_Check2_Phrases.mp3" MP3
  TRACK 01 AUDIO
    TITLE "0:"
    INDEX 01 00:00:00
  TRACK 02 AUDIO
    TITLE "4:cjc124_2049"
    INDEX 01 00:00:33
  TRACK 03 AUDIO
    TITLE "0:"
    INDEX 01 00:01:56
  TRACK 04 AUDIO
    TITLE "5:cjc124_2050"
    INDEX 01 00:02:14
  TRACK 05 AUDIO
    TITLE "0:"
    INDEX 01 00:03:59
  TRACK 06 AUDIO
    TITLE "6:cjc124_2051"
    INDEX 01 00:04:01
  TRACK 07 AUDIO
    TITLE "0:"
    INDEX 01 00:05:38
  TRACK 08 AUDIO
    TITLE "5:cjc124_2052"
    INDEX 01 00:06:10
  TRACK 09 AUDIO
    TITLE "0:"
    INDEX 01 00:07:72
  TRACK 10 AUDIO
    TITLE "6:cjc124_2053"
    INDEX 01 00:08:11
  TRACK 11 AUDIO
    TITLE "0:"
    INDEX 01 00:09:53
  TRACK 12 AUDIO
    TITLE "5:cjc124_2054"
    INDEX 01 00:10:18
  TRACK 13 AUDIO
    TITLE "0:"
    INDEX 01 00:11:62
  TRACK 14 AUDIO
    TITLE "6:cjc124_2055"
    INDEX 01 00:12:03
  TRACK 15 AUDIO
    TITLE "0:"
    INDEX 01 00:13:43
  TRACK 16 AUDIO
    TITLE "5:cjc124_2056"
    INDEX 01 00:14:06
  TRACK 17 AUDIO
    TITLE "0:"
    INDEX 01 00:15:54
  TRACK 18 AUDIO
    TITLE "6:cjc124_2057"
    INDEX 01 00:15:70
  TRACK 19 AUDIO
    TITLE "0:"
    INDEX 01 00:17:43
  TRACK 20 AUDIO
    TITLE "5:cjc124_2058"
    INDEX 01 00:18:05
  TRACK 21 AUDIO
    TITLE "0:"
    INDEX 01 00:19:46
  TRACK 22 AUDIO
    TITLE "6:cjc124_2059"
    INDEX 01 00:20:00
  TRACK 23 AUDIO
    TITLE "0:"
    INDEX 01 00:21:31
  TRACK 24 AUDIO
    TITLE "5:cjc124_2060"
    INDEX 01 00:21:66
  TRACK 25 AUDIO
    TITLE "0:"
    INDEX 01 00:23:36
  TRACK 26 AUDIO
    TITLE "6:cjc124_2061"
    INDEX 01 00:23:53
  TRACK 27 AUDIO
    TITLE "0:"
    INDEX 01 00:25:03
  TRACK 28 AUDIO
    TITLE "5:cjc124_2062"
    INDEX 01 00:25:43
  TRACK 29 AUDIO
    TITLE "0:"
    INDEX 01 00:28:04
  TRACK 30 AUDIO
    TITLE "6:cjc124_2063"
    INDEX 01 00:28:23
  TRACK 31 AUDIO
    TITLE "0:"
    INDEX 01 00:30:14
  TRACK 32 AUDIO
    TITLE "5:cjc124_2064"
    INDEX 01 00:30:52
  TRACK 33 AUDIO
    TITLE "0:"
    INDEX 01 00:33:11
  TRACK 34 AUDIO
    TITLE "6:cjc124_2065"
    INDEX 01 00:33:42
  TRACK 35 AUDIO
    TITLE "0:"
    INDEX 01 00:35:10
  TRACK 36 AUDIO
    TITLE "5:cjc124_2066"
    INDEX 01 00:35:53
  TRACK 37 AUDIO
    TITLE "0:"
    INDEX 01 00:37:08
  TRACK 38 AUDIO
    TITLE "6:cjc124_2067"
    INDEX 01 00:37:38
  TRACK 39 AUDIO
    TITLE "0:"
    INDEX 01 00:39:25
  TRACK 40 AUDIO
    TITLE "5:cjc124_2068"
    INDEX 01 00:39:66
  TRACK 41 AUDIO
    TITLE "0:"
    INDEX 01 00:42:14
  TRACK 42 AUDIO
    TITLE "6:cjc124_2069"
    INDEX 01 00:42:29
  TRACK 43 AUDIO
    TITLE "0:"
    INDEX 01 00:44:28
  TRACK 44 AUDIO
    TITLE "5:cjc124_2070"
    INDEX 01 00:44:65
  TRACK 45 AUDIO
    TITLE "0:"
    INDEX 01 00:46:66
  TRACK 46 AUDIO
    TITLE "6:cjc124_2071"
    INDEX 01 00:47:07
  TRACK 47 AUDIO
    TITLE "0:"
    INDEX 01 00:48:48
  TRACK 48 AUDIO
    TITLE "5:cjc124_2072"
    INDEX 01 00:49:10
  TRACK 49 AUDIO
    TITLE "0:"
    INDEX 01 00:50:68
  TRACK 50 AUDIO
    TITLE "6:cjc124_2073"
    INDEX 01 00:51:09
  TRACK 51 AUDIO
    TITLE "0:"
    INDEX 01 00:52:24
  TRACK 52 AUDIO
    TITLE "5:cjc124_2074"
    INDEX 01 00:52:63
  TRACK 53 AUDIO
    TITLE "0:"
    INDEX 01 00:54:38
  TRACK 54 AUDIO
    TITLE "6:cjc124_2075"
    INDEX 01 00:54:64
  TRACK 55 AUDIO
    TITLE "0:"
    INDEX 01 00:56:24
  TRACK 56 AUDIO
    TITLE "5:cjc124_2076"
    INDEX 01 00:56:59
  TRACK 57 AUDIO
    TITLE "0:"
    INDEX 01 00:58:40
  TRACK 58 AUDIO
    TITLE "6:cjc124_2077"
    INDEX 01 00:58:60
  TRACK 59 AUDIO
    TITLE "0:"
    INDEX 01 01:00:45
  TRACK 60 AUDIO
    TITLE "5:cjc124_2078"
    INDEX 01 01:00:74
  TRACK 61 AUDIO
    TITLE "0:"
    INDEX 01 01:02:59
  TRACK 62 AUDIO
    TITLE "6:cjc124_2079"
    INDEX 01 01:03:00
  TRACK 63 AUDIO
    TITLE "0:"
    INDEX 01 01:04:48
  TRACK 64 AUDIO
    TITLE "5:cjc124_2080"
    INDEX 01 01:05:19
  TRACK 65 AUDIO
    TITLE "0:"
    INDEX 01 01:06:63
  TRACK 66 AUDIO
    TITLE "6:cjc124_2081"
    INDEX 01 01:07:02
  TRACK 67 AUDIO
    TITLE "0:"
    INDEX 01 01:08:58
